<svg width="25" height="24" viewBox="0 0 25 24" fill="none" xmlns="http://www.w3.org/2000/svg">
<path d="M8.56074 17.563C8.61392 17.8019 8.73889 18.0189 8.91888 18.1847C9.09888 18.3506 9.32529 18.4574 9.56775 18.491C9.8102 18.5245 10.0571 18.4831 10.2754 18.3722C10.4936 18.2614 10.6727 18.0865 10.7887 17.871L12.8787 14.778L17.7857 19.685C17.8848 19.7841 18.0024 19.8627 18.1319 19.9163C18.2614 19.9699 18.4001 19.9975 18.5402 19.9975C18.6804 19.9975 18.8191 19.9699 18.9486 19.9163C19.078 19.8627 19.1957 19.7841 19.2947 19.685L20.3417 18.638C20.4408 18.5389 20.5194 18.4213 20.573 18.2918C20.6267 18.1624 20.6543 18.0236 20.6543 17.8835C20.6543 17.7434 20.6267 17.6046 20.573 17.4752C20.5194 17.3457 20.4408 17.2281 20.3417 17.129L15.4347 12.222L18.5477 10.132C18.7633 10.0159 18.9381 9.8367 19.0489 9.61839C19.1596 9.40008 19.201 9.15312 19.1673 8.91064C19.1337 8.66816 19.0267 8.44177 18.8607 8.26184C18.6948 8.08191 18.4777 7.95704 18.2387 7.904L4.65674 4L8.56074 17.563Z" stroke="#070707" stroke-width="2" stroke-linecap="round" stroke-linejoin="round"/>
</svg>
