<svg width="38" height="35" viewBox="0 0 38 35" fill="none" xmlns="http://www.w3.org/2000/svg">
<circle cx="18" cy="17" r="16.3333" stroke="black" stroke-width="1.33333"/>
<path d="M20.8954 17C20.8954 17.9671 20.1722 18.7143 19.3239 18.7143C18.4756 18.7143 17.7525 17.9671 17.7525 17C17.7525 16.0329 18.4756 15.2857 19.3239 15.2857C20.1722 15.2857 20.8954 16.0329 20.8954 17Z" fill="white" stroke="black" stroke-width="0.571429"/>
<path d="M20.8954 33C20.8954 33.9671 20.1722 34.7143 19.3239 34.7143C18.4756 34.7143 17.7525 33.9671 17.7525 33C17.7525 32.0329 18.4756 31.2857 19.3239 31.2857C20.1722 31.2857 20.8954 32.0329 20.8954 33Z" fill="white" stroke="black" stroke-width="0.571429"/>
<path d="M3.56187 25C3.56187 25.9671 2.83875 26.7143 1.99044 26.7143C1.14214 26.7143 0.419015 25.9671 0.419015 25C0.419015 24.0329 1.14214 23.2857 1.99044 23.2857C2.83875 23.2857 3.56187 24.0329 3.56187 25Z" fill="white" stroke="black" stroke-width="0.571429"/>
<path d="M36.8949 25C36.8949 25.9671 36.1718 26.7143 35.3235 26.7143C34.4751 26.7143 33.752 25.9671 33.752 25C33.752 24.0329 34.4751 23.2857 35.3235 23.2857C36.1718 23.2857 36.8949 24.0329 36.8949 25Z" fill="white" stroke="black" stroke-width="0.571429"/>
</svg>
