<svg width="32" height="32" viewBox="0 0 32 32" fill="none" xmlns="http://www.w3.org/2000/svg">
<path d="M15.156 7.37143C12.644 7.37143 10.235 8.36931 8.45871 10.1455C6.68248 11.9218 5.6846 14.3309 5.6846 16.8429C5.6846 19.3548 6.68248 21.7639 8.45871 23.5402C10.235 25.3164 12.644 26.3143 15.156 26.3143C17.668 26.3143 20.0771 25.3164 21.8533 23.5402C23.6296 21.7639 24.6275 19.3548 24.6275 16.8429C24.6275 14.3309 23.6296 11.9218 21.8533 10.1455C20.0771 8.36931 17.668 7.37143 15.156 7.37143ZM4.57031 16.8429C4.57031 14.0353 5.68559 11.3428 7.6708 9.35762C9.656 7.37242 12.3485 6.25714 15.156 6.25714C17.9635 6.25714 20.656 7.37242 22.6413 9.35762C24.6265 11.3428 25.7417 14.0353 25.7417 16.8429C25.7417 19.6504 24.6265 22.3429 22.6413 24.3281C20.656 26.3133 17.9635 27.4286 15.156 27.4286C12.3485 27.4286 9.656 26.3133 7.6708 24.3281C5.68559 22.3429 4.57031 19.6504 4.57031 16.8429Z" fill="black"/>
<path d="M10.1436 16.2857H14.6007V11.8286H15.715V16.2857H20.1721V17.4H15.715V21.8572H14.6007V17.4H10.1436V16.2857Z" fill="black"/>
</svg>
