<svg width="32" height="32" viewBox="0 0 32 32" fill="none" xmlns="http://www.w3.org/2000/svg">
<path d="M7.20508 14.0571L12.5536 8.70857C12.7619 8.5044 13.042 8.39004 13.3336 8.39004C13.6253 8.39004 13.9054 8.5044 14.1136 8.70857L17.1222 11.7171C17.3104 11.9059 17.5601 12.021 17.8258 12.0414C18.0916 12.0618 18.3559 11.9863 18.5708 11.8286L26.1479 6.25714" stroke="black" stroke-width="1.11429"/>
<path fill-rule="evenodd" clip-rule="evenodd" d="M21.6908 14.0572C21.3953 14.0572 21.1118 14.1746 20.9029 14.3835C20.6939 14.5925 20.5765 14.8759 20.5765 15.1714V19.6286H17.2336V18.5143C17.2336 18.2188 17.1163 17.9354 16.9073 17.7264C16.6983 17.5174 16.4149 17.4 16.1194 17.4H12.7765C12.481 17.4 12.1976 17.5174 11.9886 17.7264C11.7796 17.9354 11.6622 18.2188 11.6622 18.5143V20.7429H8.31936C8.02384 20.7429 7.74041 20.8603 7.53145 21.0692C7.32248 21.2782 7.20508 21.5616 7.20508 21.8572V26.3143H26.1479V15.1714C26.1479 14.8759 26.0305 14.5925 25.8216 14.3835C25.6126 14.1746 25.3292 14.0572 25.0336 14.0572H21.6908ZM21.6908 25.2H25.0336V15.1714H21.6908V25.2ZM20.5765 25.2V20.7429H17.2336V25.2H20.5765ZM16.1194 20.1857V25.2H12.7765V18.5143H16.1194V20.1857ZM11.6622 25.2V21.8572H8.31936V25.2H11.6622Z" fill="black"/>
</svg>
