<svg width="22" height="23" viewBox="0 0 22 23" fill="none" xmlns="http://www.w3.org/2000/svg">
<path fill-rule="evenodd" clip-rule="evenodd" d="M5.76202 1.22681C3.14524 1.22681 1.02393 3.34812 1.02393 5.9649V16.4411C1.02393 19.0579 3.14524 21.1792 5.76202 21.1792H16.2382C18.855 21.1792 20.9763 19.0579 20.9763 16.4411V5.9649C20.9763 3.34812 18.855 1.22681 16.2382 1.22681H5.76202ZM0.0239258 5.9649C0.0239258 2.79584 2.59296 0.226807 5.76202 0.226807H16.2382C19.4073 0.226807 21.9763 2.79584 21.9763 5.9649V16.4411C21.9763 19.6102 19.4073 22.1792 16.2382 22.1792H5.76202C2.59296 22.1792 0.0239258 19.6102 0.0239258 16.4411V5.9649ZM11.5868 7.50692C10.8189 7.39306 10.0347 7.52421 9.34572 7.88172C8.65671 8.23924 8.09797 8.80491 7.74898 9.49827C7.39999 10.1916 7.27851 10.9774 7.40183 11.7438C7.52516 12.5102 7.88699 13.2181 8.43588 13.767C8.98477 14.3159 9.69275 14.6778 10.4591 14.8011C11.2255 14.9244 12.0113 14.8029 12.7046 14.4539C13.398 14.1049 13.9637 13.5462 14.3212 12.8572C14.6787 12.1682 14.8099 11.384 14.696 10.6161C14.5799 9.83291 14.2149 9.1078 13.655 8.54791C13.0951 7.98803 12.37 7.62306 11.5868 7.50692ZM8.88515 6.9941C9.76086 6.53971 10.7575 6.37302 11.7335 6.51773C12.7289 6.66535 13.6505 7.12921 14.3621 7.84081C15.0737 8.5524 15.5376 9.474 15.6852 10.4695C15.8299 11.4454 15.6632 12.4421 15.2088 13.3178C14.7544 14.1935 14.0355 14.9036 13.1542 15.3472C12.273 15.7907 11.2743 15.9451 10.3003 15.7884C9.32621 15.6316 8.42639 15.1718 7.72877 14.4741C7.03116 13.7765 6.57127 12.8767 6.41453 11.9027C6.2578 10.9286 6.41219 9.92993 6.85574 9.04868C7.2993 8.16744 8.00944 7.44849 8.88515 6.9941ZM16.762 4.94109C16.4859 4.94109 16.262 5.16495 16.262 5.44109C16.262 5.71724 16.4859 5.94109 16.762 5.94109H16.772C17.0482 5.94109 17.272 5.71724 17.272 5.44109C17.272 5.16495 17.0482 4.94109 16.772 4.94109H16.762Z" fill="white"/>
</svg>
