<svg width="33" height="33" viewBox="0 0 33 33" fill="none" xmlns="http://www.w3.org/2000/svg">
    <g clip-path="url(#clip0_555_870)">
        <path
            d="M24.7893 10.2746L19.2713 7.91846C17.0761 6.98113 14.5985 6.95424 12.3834 7.84369C10.1684 8.73315 8.3974 10.4661 7.46007 12.6613C6.52274 14.8565 6.49585 17.3342 7.3853 19.5492C8.27476 21.7642 10.0077 23.5352 12.2029 24.4725L17.7209 26.8287L19.2917 23.15L13.7737 20.7939C12.5541 20.2731 11.5914 19.2892 11.0972 18.0587C10.6031 16.8281 10.618 15.4516 11.1388 14.2321C11.6595 13.0125 12.6434 12.0497 13.8739 11.5556C15.1045 11.0615 16.481 11.0764 17.7006 11.5971L23.2186 13.9533M21.131 23.9354L19.5603 27.6141L22.3193 28.7921L23.8901 25.1134M26.6287 11.06L25.0579 14.7387L27.8169 15.9167L29.3877 12.238"
            fill="black" />
    </g>
    <defs>
        <clipPath id="clip0_555_870">
            <rect width="24" height="24" fill="#221111" transform="translate(32.4053 10.2644) rotate(113.122)" />
        </clipPath>
    </defs>
</svg>