<svg width="21" height="21" viewBox="0 0 21 21" fill="none" xmlns="http://www.w3.org/2000/svg">
<path d="M4.15689 9.17143C4.15689 7.84156 4.68518 6.56616 5.62554 5.6258C6.5659 4.68544 7.8413 4.15715 9.17117 4.15715C10.501 4.15715 11.7764 4.68544 12.7168 5.6258C13.6572 6.56616 14.1855 7.84156 14.1855 9.17143C14.1855 10.5013 13.6572 11.7767 12.7168 12.7171C11.7764 13.6574 10.501 14.1857 9.17117 14.1857C7.8413 14.1857 6.5659 13.6574 5.62554 12.7171C4.68518 11.7767 4.15689 10.5013 4.15689 9.17143ZM9.17117 2.48572C8.10856 2.48524 7.06114 2.73804 6.11575 3.22318C5.17035 3.70832 4.3542 4.41182 3.73497 5.27535C3.11574 6.13888 2.71125 7.13757 2.55505 8.18864C2.39885 9.2397 2.49543 10.3129 2.83678 11.3192C3.17813 12.3254 3.75443 13.2359 4.51789 13.975C5.28135 14.7141 6.20998 15.2605 7.22681 15.5691C8.24363 15.8776 9.31936 15.9394 10.3648 15.7492C11.4103 15.559 12.3953 15.1223 13.2383 14.4754L17.2275 18.4646L18.4086 17.2834L14.4306 13.3054C15.2067 12.319 15.6895 11.1339 15.8236 9.88596C15.9578 8.63797 15.7379 7.37743 15.1891 6.24856C14.6404 5.11968 13.785 4.16808 12.7207 3.50264C11.6564 2.83719 10.4263 2.48478 9.17117 2.48572Z" fill="black"/>
</svg>
