<svg width="35" height="45" viewBox="0 0 35 45" fill="none" xmlns="http://www.w3.org/2000/svg">
<line y1="-1.29807" x2="28.1912" y2="-1.29807" transform="matrix(4.37103e-08 -1 -1 -4.37103e-08 9.85986 38.9957)" stroke="black" stroke-width="2.59614"/>
<path d="M10.9082 2.66611L4.27906 14.1894L17.5731 14.1687L10.9082 2.66611Z" fill="black"/>
<path d="M17.4992 17.1228L17.3455 17.4816C17.6872 18.0113 18.4304 19.1389 19.5751 20.8645C20.737 22.5902 21.7792 24.1791 22.7018 25.6314L29.3908 36.2159L30.9285 35.6008L31.1335 35.1139C30.638 34.3621 29.6129 32.8074 28.0581 30.4495C26.5204 28.1088 25.2732 26.1867 24.3164 24.6832C23.1204 22.7867 22.0355 21.0696 21.0616 19.5319C20.0877 17.9942 19.4384 16.969 19.1138 16.4565L17.4992 17.1228ZM19.5495 26.7847C18.4048 26.7847 17.5078 27.1606 16.8585 27.9123C16.2264 28.6812 15.9103 29.7149 15.9103 31.0134C15.9103 32.3973 16.2776 33.5079 17.0123 34.3451C17.747 35.1822 18.7294 35.6008 19.9596 35.6008C21.1214 35.6008 22.0098 35.2164 22.6249 34.4476C23.24 33.6787 23.5475 32.6792 23.5475 31.4491C23.5475 30.0651 23.1887 28.9375 22.4711 28.0661C21.7706 27.2118 20.7968 26.7847 19.5495 26.7847ZM19.857 29.2706C21.2581 29.2706 21.9586 29.843 21.9586 30.9877C21.9586 31.6028 21.745 32.0898 21.3179 32.4486C20.9078 32.8244 20.3184 33.0124 19.5495 33.0124C18.8832 33.0124 18.3706 32.8586 18.0118 32.5511C17.6701 32.2606 17.4992 31.8506 17.4992 31.3209C17.4992 30.6204 17.7128 30.0993 18.1399 29.7576C18.5842 29.433 19.1565 29.2706 19.857 29.2706ZM29.442 18.5324C28.2973 18.5324 27.4089 18.9082 26.7767 19.66C26.1445 20.4289 25.8284 21.4625 25.8284 22.761C25.8284 24.1279 26.1958 25.2299 26.9305 26.0671C27.6651 26.9214 28.639 27.3485 29.8521 27.3485C31.031 27.3485 31.928 26.9641 32.5431 26.1952C33.1582 25.4435 33.4657 24.4525 33.4657 23.2224C33.4657 21.8384 33.1069 20.7108 32.3893 19.8394C31.6717 18.968 30.6893 18.5324 29.442 18.5324ZM29.7752 21.0183C31.1591 21.0183 31.8511 21.5907 31.8511 22.7354C31.8511 23.3505 31.6461 23.8374 31.236 24.1962C30.826 24.5721 30.2365 24.7601 29.4677 24.7601C28.8013 24.7601 28.2888 24.6063 27.93 24.2987C27.5712 24.0083 27.3918 23.5982 27.3918 23.0686C27.3918 22.3852 27.6139 21.8726 28.0581 21.5309C28.5023 21.1892 29.0747 21.0183 29.7752 21.0183Z" fill="black"/>
<line y1="-1" x2="20.5027" y2="-1" transform="matrix(1 -8.74228e-08 -8.74228e-08 -1 0.890137 40.2771)" stroke="black" stroke-width="2"/>
<line y1="-1" x2="20.5027" y2="-1" transform="matrix(1 -8.74228e-08 -8.74228e-08 -1 0.890137 0.553101)" stroke="black" stroke-width="2"/>
</svg>
