<svg width="35" height="45" viewBox="0 0 35 45" fill="none" xmlns="http://www.w3.org/2000/svg">
<line y1="-1.29807" x2="28.1912" y2="-1.29807" transform="matrix(4.37103e-08 -1 -1 -4.37103e-08 9.85986 38.9957)" stroke="#2962FF" stroke-width="2.59614"/>
<path d="M15.9306 13.2238L10.9111 4.56102L5.91863 13.2394L15.9306 13.2238Z" fill="#2962FF" stroke="#2962FF" stroke-width="1.89491"/>
<mask id="path-3-outside-1_555_864" maskUnits="userSpaceOnUse" x="14.4233" y="14.8399" width="21" height="23" fill="black">
<rect fill="white" x="14.4233" y="14.8399" width="21" height="23"/>
<path d="M17.4992 17.1228L17.3455 17.4816C17.6872 18.0113 18.4304 19.1389 19.5751 20.8645C20.737 22.5902 21.7792 24.1791 22.7018 25.6314L29.3908 36.2159L30.9285 35.6008L31.1335 35.1139C30.638 34.3621 29.6129 32.8074 28.0581 30.4495C26.5204 28.1088 25.2732 26.1867 24.3164 24.6832C23.1204 22.7867 22.0355 21.0696 21.0616 19.5319C20.0877 17.9942 19.4384 16.969 19.1138 16.4565L17.4992 17.1228ZM19.5495 26.7847C18.4048 26.7847 17.5078 27.1606 16.8585 27.9123C16.2264 28.6812 15.9103 29.7149 15.9103 31.0134C15.9103 32.3973 16.2776 33.5079 17.0123 34.3451C17.747 35.1822 18.7294 35.6008 19.9596 35.6008C21.1214 35.6008 22.0098 35.2164 22.6249 34.4476C23.24 33.6787 23.5475 32.6792 23.5475 31.4491C23.5475 30.0651 23.1887 28.9375 22.4711 28.0661C21.7706 27.2118 20.7968 26.7847 19.5495 26.7847ZM19.857 29.2706C21.2581 29.2706 21.9586 29.843 21.9586 30.9877C21.9586 31.6028 21.745 32.0898 21.3179 32.4486C20.9078 32.8244 20.3184 33.0124 19.5495 33.0124C18.8832 33.0124 18.3706 32.8586 18.0118 32.5511C17.6701 32.2606 17.4992 31.8506 17.4992 31.3209C17.4992 30.6204 17.7128 30.0993 18.1399 29.7576C18.5842 29.433 19.1565 29.2706 19.857 29.2706ZM29.442 18.5324C28.2973 18.5324 27.4089 18.9082 26.7767 19.66C26.1445 20.4289 25.8284 21.4625 25.8284 22.761C25.8284 24.1279 26.1958 25.2299 26.9305 26.0671C27.6651 26.9214 28.639 27.3485 29.8521 27.3485C31.031 27.3485 31.928 26.9641 32.5431 26.1952C33.1582 25.4435 33.4657 24.4525 33.4657 23.2224C33.4657 21.8384 33.1069 20.7108 32.3893 19.8394C31.6717 18.968 30.6893 18.5324 29.442 18.5324ZM29.7752 21.0183C31.1591 21.0183 31.8511 21.5907 31.8511 22.7354C31.8511 23.3505 31.6461 23.8374 31.236 24.1962C30.826 24.5721 30.2365 24.7601 29.4677 24.7601C28.8013 24.7601 28.2888 24.6063 27.93 24.2987C27.5712 24.0083 27.3918 23.5982 27.3918 23.0686C27.3918 22.3852 27.6139 21.8726 28.0581 21.5309C28.5023 21.1892 29.0747 21.0183 29.7752 21.0183Z"/>
</mask>
<path d="M17.4992 17.1228L17.3455 17.4816C17.6872 18.0113 18.4304 19.1389 19.5751 20.8645C20.737 22.5902 21.7792 24.1791 22.7018 25.6314L29.3908 36.2159L30.9285 35.6008L31.1335 35.1139C30.638 34.3621 29.6129 32.8074 28.0581 30.4495C26.5204 28.1088 25.2732 26.1867 24.3164 24.6832C23.1204 22.7867 22.0355 21.0696 21.0616 19.5319C20.0877 17.9942 19.4384 16.969 19.1138 16.4565L17.4992 17.1228ZM19.5495 26.7847C18.4048 26.7847 17.5078 27.1606 16.8585 27.9123C16.2264 28.6812 15.9103 29.7149 15.9103 31.0134C15.9103 32.3973 16.2776 33.5079 17.0123 34.3451C17.747 35.1822 18.7294 35.6008 19.9596 35.6008C21.1214 35.6008 22.0098 35.2164 22.6249 34.4476C23.24 33.6787 23.5475 32.6792 23.5475 31.4491C23.5475 30.0651 23.1887 28.9375 22.4711 28.0661C21.7706 27.2118 20.7968 26.7847 19.5495 26.7847ZM19.857 29.2706C21.2581 29.2706 21.9586 29.843 21.9586 30.9877C21.9586 31.6028 21.745 32.0898 21.3179 32.4486C20.9078 32.8244 20.3184 33.0124 19.5495 33.0124C18.8832 33.0124 18.3706 32.8586 18.0118 32.5511C17.6701 32.2606 17.4992 31.8506 17.4992 31.3209C17.4992 30.6204 17.7128 30.0993 18.1399 29.7576C18.5842 29.433 19.1565 29.2706 19.857 29.2706ZM29.442 18.5324C28.2973 18.5324 27.4089 18.9082 26.7767 19.66C26.1445 20.4289 25.8284 21.4625 25.8284 22.761C25.8284 24.1279 26.1958 25.2299 26.9305 26.0671C27.6651 26.9214 28.639 27.3485 29.8521 27.3485C31.031 27.3485 31.928 26.9641 32.5431 26.1952C33.1582 25.4435 33.4657 24.4525 33.4657 23.2224C33.4657 21.8384 33.1069 20.7108 32.3893 19.8394C31.6717 18.968 30.6893 18.5324 29.442 18.5324ZM29.7752 21.0183C31.1591 21.0183 31.8511 21.5907 31.8511 22.7354C31.8511 23.3505 31.6461 23.8374 31.236 24.1962C30.826 24.5721 30.2365 24.7601 29.4677 24.7601C28.8013 24.7601 28.2888 24.6063 27.93 24.2987C27.5712 24.0083 27.3918 23.5982 27.3918 23.0686C27.3918 22.3852 27.6139 21.8726 28.0581 21.5309C28.5023 21.1892 29.0747 21.0183 29.7752 21.0183Z" fill="#2962FF"/>
<path d="M17.4992 17.1228L16.3214 16.618L16.5273 16.1377L17.0104 15.9383L17.4992 17.1228ZM17.3455 17.4816L16.2687 18.1763L15.8991 17.6034L16.1677 16.9768L17.3455 17.4816ZM19.5751 20.8645L18.5122 21.5802L18.5073 21.5729L19.5751 20.8645ZM22.7018 25.6314L23.7834 24.9443L23.785 24.9469L22.7018 25.6314ZM29.3908 36.2159L29.8667 37.4057L28.877 37.8016L28.3076 36.9005L29.3908 36.2159ZM30.9285 35.6008L32.1095 36.0981L31.9017 36.5917L31.4044 36.7906L30.9285 35.6008ZM31.1335 35.1139L32.2034 34.4087L32.5802 34.9803L32.3145 35.6112L31.1335 35.1139ZM28.0581 30.4495L26.9883 31.155L26.9871 31.1531L28.0581 30.4495ZM24.3164 24.6832L23.2353 25.3711L23.2325 25.3667L24.3164 24.6832ZM21.0616 19.5319L22.1441 18.8462L22.1441 18.8462L21.0616 19.5319ZM19.1138 16.4565L18.625 15.272L19.6203 14.8612L20.1964 15.7708L19.1138 16.4565ZM16.8585 27.9123L15.8687 27.0985L15.8786 27.0865L15.8887 27.0748L16.8585 27.9123ZM17.0123 34.3451L17.9754 33.4998L17.9754 33.4998L17.0123 34.3451ZM22.6249 34.4476L23.6255 35.2481L23.6255 35.2481L22.6249 34.4476ZM22.4711 28.0661L21.482 28.8807L21.4803 28.8786L22.4711 28.0661ZM21.3179 32.4486L20.452 31.504L20.4724 31.4852L20.4937 31.4674L21.3179 32.4486ZM18.0118 32.5511L18.8417 31.5747L18.8457 31.5781L18.0118 32.5511ZM18.1399 29.7576L17.3395 28.757L17.3613 28.7395L17.3839 28.723L18.1399 29.7576ZM26.7767 19.66L25.7869 18.8462L25.7914 18.8407L25.7959 18.8353L26.7767 19.66ZM26.9305 26.0671L27.8937 25.2218L27.902 25.2316L26.9305 26.0671ZM32.5431 26.1952L31.5424 25.3947L31.5513 25.3838L32.5431 26.1952ZM32.3893 19.8394L33.3785 19.0248L33.3785 19.0248L32.3893 19.8394ZM31.236 24.1962L30.3701 23.2516L30.3811 23.2416L30.3922 23.2319L31.236 24.1962ZM27.93 24.2987L28.7362 23.3028L28.7502 23.3141L28.7639 23.3258L27.93 24.2987ZM28.0581 21.5309L28.8394 22.5466L28.8394 22.5466L28.0581 21.5309ZM18.677 17.6276L18.5233 17.9864L16.1677 16.9768L16.3214 16.618L18.677 17.6276ZM18.4222 16.7869C18.7587 17.3084 19.4972 18.4289 20.643 20.1562L18.5073 21.5729C17.3636 19.8489 16.6157 18.7141 16.2687 18.1763L18.4222 16.7869ZM20.6381 20.1489C21.805 21.8821 22.8536 23.4807 23.7834 24.9443L21.6202 26.3186C20.7048 24.8776 19.6689 23.2983 18.5122 21.5802L20.6381 20.1489ZM23.785 24.9469L30.474 35.5314L28.3076 36.9005L21.6186 26.316L23.785 24.9469ZM28.9149 35.0262L30.4526 34.4111L31.4044 36.7906L29.8667 37.4057L28.9149 35.0262ZM29.7475 35.1036L29.9525 34.6166L32.3145 35.6112L32.1095 36.0981L29.7475 35.1036ZM30.0636 35.8191C29.5682 35.0675 28.5432 33.5128 26.9883 31.155L29.1279 29.7441C30.6827 32.1019 31.7079 33.6568 32.2034 34.4087L30.0636 35.8191ZM26.9871 31.1531C25.4477 28.8098 24.1967 26.882 23.2353 25.3711L25.3975 23.9952C26.3496 25.4914 27.5931 27.4079 29.1291 29.746L26.9871 31.1531ZM23.2325 25.3667C22.0368 23.4707 20.9524 21.7544 19.979 20.2175L22.1441 18.8462C23.1185 20.3848 24.2039 22.1026 25.4003 23.9996L23.2325 25.3667ZM19.979 20.2175C19.0051 18.6798 18.3559 17.6547 18.0313 17.1421L20.1964 15.7708C20.521 16.2834 21.1703 17.3085 22.1441 18.8462L19.979 20.2175ZM19.6027 17.641L17.9881 18.3073L17.0104 15.9383L18.625 15.272L19.6027 17.641ZM19.5495 28.0661C18.7142 28.0661 18.1958 28.3244 17.8283 28.7499L15.8887 27.0748C16.8198 25.9967 18.0954 25.5033 19.5495 25.5033L19.5495 28.0661ZM17.8483 28.7262C17.4556 29.2038 17.1917 29.9202 17.1917 31.0134L14.6289 31.0134C14.6289 29.5095 14.9971 28.1586 15.8687 27.0985L17.8483 28.7262ZM17.1917 31.0134C17.1917 32.1646 17.4923 32.9492 17.9754 33.4998L16.0492 35.1903C15.063 34.0665 14.6289 32.63 14.6289 31.0134L17.1917 31.0134ZM17.9754 33.4998C18.4397 34.0289 19.0551 34.3194 19.9596 34.3194L19.9596 36.8823C18.4037 36.8823 17.0542 36.3356 16.0492 35.1903L17.9754 33.4998ZM19.9596 34.3194C20.8104 34.3194 21.2974 34.0557 21.6243 33.6471L23.6255 35.2481C22.7223 36.3772 21.4324 36.8823 19.9596 36.8823L19.9596 34.3194ZM21.6243 33.6471C22.0161 33.1573 22.2661 32.4625 22.2661 31.4491L24.8289 31.4491C24.8289 32.8959 24.4639 34.2001 23.6255 35.2481L21.6243 33.6471ZM22.2661 31.4491C22.2661 30.2929 21.9708 29.4742 21.482 28.8807L23.4603 27.2515C24.4067 28.4007 24.8289 29.8373 24.8289 31.4491L22.2661 31.4491ZM21.4803 28.8786C21.0564 28.3618 20.4687 28.0661 19.5495 28.0661L19.5495 25.5033C21.1248 25.5033 22.4848 26.0619 23.462 27.2536L21.4803 28.8786ZM19.857 27.9892C20.6993 27.9892 21.5689 28.156 22.244 28.7076C22.9686 29.2997 23.24 30.1418 23.24 30.9877L20.6772 30.9877C20.6772 30.8298 20.6528 30.7501 20.6407 30.7205C20.6319 30.6989 20.6276 30.6964 20.6224 30.6922C20.597 30.6714 20.4158 30.5521 19.857 30.5521L19.857 27.9892ZM23.24 30.9877C23.24 31.9375 22.8911 32.8006 22.1421 33.4297L20.4937 31.4674C20.5989 31.3789 20.6772 31.2682 20.6772 30.9877L23.24 30.9877ZM22.1837 33.3932C21.4599 34.0567 20.5156 34.2938 19.5495 34.2938L19.5495 31.731C20.1211 31.731 20.3557 31.5922 20.452 31.504L22.1837 33.3932ZM19.5495 34.2938C18.7014 34.2938 17.8484 34.0987 17.1779 33.524L18.8457 31.5781C18.8928 31.6185 19.0649 31.731 19.5495 31.731L19.5495 34.2938ZM17.1819 33.5274C16.501 32.9487 16.2178 32.1513 16.2178 31.3209L18.7807 31.3209C18.7807 31.4485 18.8011 31.511 18.8102 31.5328C18.8171 31.5492 18.8235 31.5592 18.8417 31.5747L17.1819 33.5274ZM16.2178 31.3209C16.2178 30.3499 16.5263 29.4075 17.3395 28.757L18.9404 30.7582C18.8993 30.7911 18.7807 30.8909 18.7807 31.3209L16.2178 31.3209ZM17.3839 28.723C18.101 28.1989 18.9594 27.9892 19.857 27.9892L19.857 30.5521C19.3537 30.5521 19.0673 30.667 18.896 30.7922L17.3839 28.723ZM29.442 19.8138C28.606 19.8138 28.1047 20.0718 27.7574 20.4847L25.7959 18.8353C26.7131 17.7447 27.9886 17.2509 29.442 17.2509L29.442 19.8138ZM27.7665 20.4738C27.3738 20.9515 27.1099 21.6679 27.1099 22.761L24.547 22.761C24.547 21.2572 24.9153 19.9063 25.7869 18.8462L27.7665 20.4738ZM27.1099 22.761C27.1099 23.8905 27.4079 24.6684 27.8936 25.2219L25.9673 26.9123C24.9836 25.7914 24.547 24.3653 24.547 22.761L27.1099 22.761ZM27.902 25.2316C28.3729 25.7791 28.9799 26.0671 29.8521 26.0671L29.8521 28.6299C28.2981 28.6299 26.9574 28.0637 25.9589 26.9026L27.902 25.2316ZM29.8521 26.0671C30.7271 26.0671 31.2193 25.7987 31.5425 25.3947L33.5437 26.9957C32.6367 28.1295 31.3349 28.6299 29.8521 28.6299L29.8521 26.0671ZM31.5513 25.3838C31.9337 24.9164 32.1843 24.2372 32.1843 23.2224L34.7471 23.2224C34.7471 24.6678 34.3826 25.9706 33.5348 27.0067L31.5513 25.3838ZM32.1843 23.2224C32.1843 22.0662 31.8889 21.2475 31.4001 20.654L33.3785 19.0248C34.3249 20.174 34.7471 21.6106 34.7471 23.2224L32.1843 23.2224ZM31.4001 20.654C30.9535 20.1117 30.3519 19.8138 29.442 19.8138L29.442 17.2509C31.0267 17.2509 32.3899 17.8244 33.3785 19.0248L31.4001 20.654ZM29.7752 19.7369C30.6118 19.7369 31.4776 19.9049 32.1489 20.4602C32.8668 21.054 33.1325 21.8947 33.1325 22.7354L30.5697 22.7354C30.5697 22.5758 30.5453 22.4942 30.5328 22.4631C30.5235 22.44 30.5189 22.4379 30.5154 22.435C30.4947 22.4179 30.3226 22.2997 29.7752 22.2997L29.7752 19.7369ZM33.1325 22.7354C33.1325 23.6669 32.8056 24.5256 32.0799 25.1606L30.3922 23.2319C30.4866 23.1493 30.5697 23.0341 30.5697 22.7354L33.1325 22.7354ZM32.1019 25.1408C31.3781 25.8043 30.4338 26.0415 29.4677 26.0415L29.4677 23.4786C30.0393 23.4786 30.2738 23.3399 30.3701 23.2516L32.1019 25.1408ZM29.4677 26.0415C28.6196 26.0415 27.7666 25.8464 27.096 25.2717L28.7639 23.3258C28.811 23.3661 28.9831 23.4786 29.4677 23.4786L29.4677 26.0415ZM27.1237 25.2947C26.4179 24.7233 26.1104 23.9208 26.1104 23.0686L28.6732 23.0686C28.6732 23.1886 28.6932 23.2436 28.7003 23.2597C28.7052 23.2709 28.7111 23.2824 28.7362 23.3028L27.1237 25.2947ZM26.1104 23.0686C26.1104 22.0845 26.4475 21.1531 27.2768 20.5152L28.8394 22.5466C28.7803 22.592 28.6732 22.6858 28.6732 23.0686L26.1104 23.0686ZM27.2768 20.5152C27.9961 19.9619 28.864 19.7369 29.7752 19.7369L29.7752 22.2997C29.2854 22.2997 29.0086 22.4164 28.8394 22.5466L27.2768 20.5152Z" fill="#2962FF" mask="url(#path-3-outside-1_555_864)"/>
<line y1="-1" x2="20.5027" y2="-1" transform="matrix(1 -8.74228e-08 -8.74228e-08 -1 0.890137 40.2771)" stroke="#2962FF" stroke-width="2"/>
<line y1="-1" x2="20.5027" y2="-1" transform="matrix(1 -8.74228e-08 -8.74228e-08 -1 0.890137 0.553101)" stroke="#2962FF" stroke-width="2"/>
</svg>
