<svg width="35" height="43" viewBox="0 0 35 43" fill="none" xmlns="http://www.w3.org/2000/svg">
<path fill-rule="evenodd" clip-rule="evenodd" d="M30.3373 11.6472L19.7516 22.2329L19.3616 22.634L18.9716 22.2329L13.7901 17.0626L4.70871 26.1329L3.92871 25.3529L13.4001 15.8814L13.7901 15.4803L14.1801 15.8814L19.3616 21.0517L29.5573 10.8672L30.3373 11.6472ZM4.31871 29.0857H5.433V30.2H4.31871V29.0857ZM6.54728 27.9714H5.433V29.0857H6.54728V30.2H7.66157V29.0857H8.77585V30.2H9.89014V29.0857H11.0044V30.2H12.1187V29.0857H13.233V30.2H14.3473V29.0857H15.4616V30.2H16.5759V29.0857H17.6901V30.2H18.8044V29.0857H19.9187V30.2H21.033V29.0857H22.1473V30.2H23.2616V29.0857H24.3759V30.2H25.4901V29.0857H26.6044V30.2H27.7187V29.0857H28.833V30.2H29.9473V29.0857H28.833V27.9714H29.9473V26.8572H28.833V25.7429H29.9473V24.6286H28.833V23.5143H29.9473V22.4H28.833V21.2857H29.9473V20.1714H28.833V19.0572H29.9473V17.9429H28.833V16.8286H29.9473V15.7143H28.833V16.8286H27.7187V17.9429H26.6044V19.0572H25.4901V20.1714H24.3759V21.2857H23.2616V22.4H22.1473V23.5143H21.033V24.6286H19.9187V25.7429H18.8044V24.6286H17.6901V23.5143H16.5759V22.4H15.4616V21.2857H14.3473V20.1714H13.233V21.2857H12.1187V22.4H11.0044V23.5143H9.89014V24.6286H8.77585V25.7429H7.66157V26.8572H6.54728V27.9714ZM7.66157 27.9714V29.0857H6.54728V27.9714H7.66157ZM8.77585 27.9714H7.66157V26.8572H8.77585V27.9714ZM9.89014 27.9714V29.0857H8.77585V27.9714H9.89014ZM9.89014 26.8572H8.77585V25.7429H9.89014V26.8572ZM11.0044 26.8572H9.89014V27.9714H11.0044V29.0857H12.1187V27.9714H13.233V29.0857H14.3473V27.9714H15.4616V29.0857H16.5759V27.9714H17.6901V29.0857H18.8044V27.9714H19.9187V29.0857H21.033V27.9714H22.1473V29.0857H23.2616V27.9714H24.3759V29.0857H25.4901V27.9714H26.6044V29.0857H27.7187V27.9714H28.833V26.8572H27.7187V25.7429H28.833V24.6286H27.7187V23.5143H28.833V22.4H27.7187V21.2857H28.833V20.1714H27.7187V19.0572H28.833V17.9429H27.7187V19.0572H26.6044V20.1714H25.4901V21.2857H24.3759V22.4H23.2616V23.5143H22.1473V24.6286H21.033V25.7429H19.9187V26.8572H18.8044V25.7429H17.6901V24.6286H16.5759V23.5143H15.4616V22.4H14.3473V21.2857H13.233V22.4H12.1187V23.5143H11.0044V24.6286H9.89014V25.7429H11.0044V26.8572ZM12.1187 26.8572V27.9714H11.0044V26.8572H12.1187ZM12.1187 25.7429H11.0044V24.6286H12.1187V25.7429ZM13.233 25.7429H12.1187V26.8572H13.233V27.9714H14.3473V26.8572H15.4616V27.9714H16.5759V26.8572H17.6901V27.9714H18.8044V26.8572H17.6901V25.7429H16.5759V24.6286H15.4616V23.5143H14.3473V22.4H13.233V23.5143H12.1187V24.6286H13.233V25.7429ZM14.3473 25.7429V26.8572H13.233V25.7429H14.3473ZM14.3473 24.6286V23.5143H13.233V24.6286H14.3473ZM14.3473 24.6286V25.7429H15.4616V26.8572H16.5759V25.7429H15.4616V24.6286H14.3473ZM21.033 26.8572V25.7429H22.1473V26.8572H21.033ZM23.2616 26.8572V27.9714H22.1473V26.8572H23.2616ZM23.2616 25.7429H22.1473V24.6286H23.2616V25.7429ZM24.3759 25.7429H23.2616V26.8572H24.3759V27.9714H25.4901V26.8572H26.6044V27.9714H27.7187V26.8572H26.6044V25.7429H27.7187V24.6286H26.6044V23.5143H27.7187V22.4H26.6044V21.2857H27.7187V20.1714H26.6044V21.2857H25.4901V22.4H24.3759V23.5143H23.2616V24.6286H24.3759V25.7429ZM25.4901 25.7429H24.3759V26.8572H25.4901V25.7429ZM25.4901 24.6286H26.6044V25.7429H25.4901V24.6286ZM25.4901 23.5143H26.6044V22.4H25.4901V23.5143ZM25.4901 23.5143V24.6286H24.3759V23.5143H25.4901ZM21.033 26.8572V27.9714H19.9187V26.8572H21.033Z" fill="black"/>
</svg>
