<svg width="20" height="25" viewBox="0 0 20 25" fill="none" xmlns="http://www.w3.org/2000/svg">
<path d="M5.44474 22.596C6.64474 22.5 7.47274 22.356 7.92874 22.164C8.38474 21.948 8.68474 21.576 8.82874 21.048C8.97274 20.496 9.04474 19.536 9.04474 18.168V2.472C7.00474 2.544 5.61274 2.664 4.86874 2.832C4.14874 2.976 3.65674 3.324 3.39274 3.876C3.12874 4.404 2.88874 5.448 2.67274 7.008L0.980738 7.152C1.26874 4.872 1.44874 2.796 1.52074 0.923999L1.84474 0.635998L4.83274 1.032H15.9927L19.0527 0.635998L19.3767 0.923999C19.4487 2.892 19.6287 4.92 19.9167 7.008L18.2247 7.152C17.9607 5.568 17.6967 4.5 17.4327 3.948C17.1687 3.396 16.7007 3.036 16.0287 2.868C15.3567 2.7 14.0607 2.568 12.1407 2.472C11.9967 3.912 11.8647 6.456 11.7447 10.104C11.6247 13.752 11.5647 17.04 11.5647 19.968C11.5647 20.856 11.7207 21.492 12.0327 21.876C12.3447 22.236 12.8727 22.416 13.6167 22.416C14.3367 22.416 14.9967 22.38 15.5967 22.308L15.7047 22.452L15.3807 24.108L14.1927 24.072L10.0887 24C8.76874 24 7.12474 24.048 5.15674 24.144L5.44474 22.596Z" fill="#2962FF"/>
</svg>
